# xmcd
#
# Track frame offsets:
#	150
#	22648
#	39421
#	65892
#	102210
#	123250
#	144762
#	161100
#	193306
#	218208
#	252841
#	274763
#	289563
#	306614
#
# Disc length: 4352 seconds
#
# Revision: 1
# Processed by: cddbd v1.5.1PL0 Copyright (c) Steve Scherf et al.
# Submitted via: audiograbber 1.83.01
#
DISCID=cd10fe0e
DTITLE=Led Zepplin - ...
DYEAR=1900
DGENRE=
TTITLE0=Black Dog
TTITLE1=Rock and Roll
TTITLE2=The Battle Of Evermore
TTITLE3=Stairway to Heaven
TTITLE4=Misty Mountain Hop
TTITLE5=Four Sticks
TTITLE6=Going To California
TTITLE7=When The Levee Breaks
TTITLE8=The Song Remains The Same
TTITLE9=The Rain Song
TTITLE10=Over The Hill And Far Away
TTITLE11=The Grunge
TTITLE12=Dancing Days
TTITLE13=D'yer Mak'er
EXTD=
EXTT0=
EXTT1=
EXTT2=
EXTT3=
EXTT4=
EXTT5=
EXTT6=
EXTT7=
EXTT8=
EXTT9=
EXTT10=
EXTT11=
EXTT12=
EXTT13=
PLAYORDER=
